<svg xmlns="http://www.w3.org/2000/svg" width="26" height="12" viewBox="0 0 26 12"><defs><style>.a{fill:#f89e2f;}</style></defs><path class="a" d="M90,77c4,0,13,1.613,13,7.018,0,6.758-26,6.526-26,0C77,78.612,86,77,90,77Zm6.259,2.748-.284,3.034a.875.875,0,1,1-1.742-.166l.309-3.3a25.969,25.969,0,0,0-3.421-.49l-.27,2.886a.875.875,0,1,1-1.742-.167l.258-2.749a25.18,25.18,0,0,0-3.353.408l-.287,3.066a.875.875,0,1,1-1.742-.166l.233-2.489c-2.82.77-5.459,2.142-5.459,4.406,0,3.991,22.488,4.2,22.488,0,0-2.137-2.35-3.479-4.985-4.27Z" transform="translate(-77 -76.999)"/></svg>