<svg xmlns="http://www.w3.org/2000/svg" width="15" height="19.992" viewBox="0 0 15 19.992"><defs><style>.a{fill:#f89e2f;}</style></defs><path class="a" d="M945.828,82.954l-2.957-7.307-1.536.3a2.144,2.144,0,0,0-1.229-.84.768.768,0,0,1,.5-.854L939.964,73a2.114,2.114,0,0,0-1.264,2.231,2.122,2.122,0,0,0-1.221,1.482l-5.714,1.151-.764.127v9.545l15,5.457V83.378Zm-6.257-6.5a.713.713,0,0,1,.714.515.558.558,0,0,1,0,.191.715.715,0,0,1-1.429.07v-.07A.71.71,0,0,1,939.571,76.453Zm-1.914,1.666a.378.378,0,0,0,0,.056.9.9,0,0,0,.107.176,2.094,2.094,0,0,0,.193.24,2.708,2.708,0,0,0,.207.2,1.421,1.421,0,0,0,.236.17,2.014,2.014,0,0,0,.271.141l.264.092a2.029,2.029,0,0,0,.293.063,2.2,2.2,0,0,0,.343.021,2.068,2.068,0,0,0,.364-.035.6.6,0,0,0,.121,0,1.18,1.18,0,0,0,.15-.043,2.237,2.237,0,0,0,.514-.233l.121-.085a2.206,2.206,0,0,0,.45-.445l.107-.148c.05-.092.1-.19.143-.29a1.476,1.476,0,0,0,.071-.19,1.091,1.091,0,0,1,.057-.2,1.041,1.041,0,0,0,0-.212.134.134,0,0,0,0-.057l.279-.056,2.043,5.041-9.693-3.53Zm-5.229,8.429V83.816l12.143,4.426v2.732Zm12.143.19-12.143-4.426V79.58l12.143,4.427Z" transform="translate(-931 -73)"/></svg>