<svg xmlns="http://www.w3.org/2000/svg" width="13.002" height="17.998" viewBox="0 0 13.002 17.998"><defs><style>.a{fill:#f89e2f;}</style></defs><path class="a" d="M1061.626,91.695a2.7,2.7,0,0,1-1.888-2.677l-.725-9.778c-.008-.107-.012-.215-.012-.324a3.308,3.308,0,0,1,.864-2.326,1.8,1.8,0,0,1,1.306-.561l4.516.037,1.158-.01A2.332,2.332,0,0,1,1069.129,74h.985a.607.607,0,0,1,0,1.214h-.984a1.119,1.119,0,0,0-1.067.829l1.774-.016a1.583,1.583,0,0,1,.31.026c1.154.206,1.964,1.609,1.843,3.192l-.714,9.779a2.7,2.7,0,0,1-1.92,2.669,21.917,21.917,0,0,1-3.84.3c-.09,0-.181,0-.271,0A21.8,21.8,0,0,1,1061.626,91.695Zm-.423-2.785c.052.743.393,1.261.68,1.316a23.342,23.342,0,0,0,7.237,0c.257-.041.635-.518.692-1.305h0l.5-6.789a9.367,9.367,0,0,1-3.034-.819l-.377-.153-.049-.019a5.554,5.554,0,0,0-2.119-.483,6,6,0,0,0-2.9.907,6.133,6.133,0,0,1-1.133.511Zm9.193-7.994.13-1.78c.068-.889-.336-1.556-.633-1.609a.169.169,0,0,0-.041,0l-1.926.017-.207,2.64A8.141,8.141,0,0,0,1070.4,80.915Zm-9.5-3.259a1.838,1.838,0,0,0-.423,1.268c0,.067,0,.135.007.2l.125,1.69c.2-.085.432-.208.674-.336a7.164,7.164,0,0,1,3.452-1.044,5.9,5.9,0,0,1,1.826.3l.172-2.19-1.038.009-4.533-.037h0A.4.4,0,0,0,1060.893,77.657Zm5.237,6.464a.8.8,0,1,1,.8.81A.805.805,0,0,1,1066.13,84.12Zm-2.48-1.9a.8.8,0,1,1,.8.81A.8.8,0,0,1,1063.65,82.22Z" transform="translate(-1059 -74.002)"/></svg>