<svg xmlns="http://www.w3.org/2000/svg" width="21" height="14" viewBox="0 0 21 14"><defs><style>.a{fill:#f89e2f;}</style></defs><path class="a" d="M804.5,76a1.817,1.817,0,0,0-1.793,1.815v.446a9.059,9.059,0,0,0-7.139,8.11h-.8a.773.773,0,0,0-.768.778v2.074a.773.773,0,0,0,.768.778h19.463a.773.773,0,0,0,.768-.778V87.147a.773.773,0,0,0-.768-.778h-.8a9.059,9.059,0,0,0-7.139-8.11v-.446A1.817,1.817,0,0,0,804.5,76Zm0,1.556a.242.242,0,0,1,.256.259v.267c-.085,0-.171-.008-.256-.008s-.172.006-.256.008v-.267A.242.242,0,0,1,804.5,77.555Zm0,2.074a7.448,7.448,0,0,1,7.387,6.74H797.113A7.448,7.448,0,0,1,804.5,79.629Zm-8.963,8.3h17.927v.519H795.536Z" transform="translate(-794 -75.999)"/></svg>