<svg xmlns="http://www.w3.org/2000/svg" width="18" height="17" viewBox="0 0 18 17"><defs><style>.a{fill:#f89e2f;}</style></defs><path class="a" d="M313.8,80.666h.143A1.069,1.069,0,0,1,315,81.745v1.619a1.07,1.07,0,0,1-1.059,1.08h-.017a7.933,7.933,0,0,1-15.848,0h-.017A1.07,1.07,0,0,1,297,83.364V81.745a1.069,1.069,0,0,1,1.059-1.079h.1c-.258-1.486.138-2.814,1.156-3.233a2.163,2.163,0,0,1,2.264.6c.283-1.725,1.278-3.035,2.566-3.035,1.09,0,1.976.942,2.391,2.288.9-1.113,2.05-1.671,3.046-1.261a2.371,2.371,0,0,1,1.308,2.018,1.673,1.673,0,0,1,.87-.159C312.862,77.983,313.626,79.149,313.8,80.666Zm-13.421,7.285a6.808,6.808,0,0,0,11.244,0Zm-.616-1.079h12.476a7.081,7.081,0,0,0,.624-2.428H299.138a7.083,7.083,0,0,0,.624,2.428Zm4.914-6.206h.435a6.886,6.886,0,0,1,.432-1.648q.082-.206.174-.4c-.121-1.475-.841-2.536-1.571-2.536-.809,0-1.588,1.291-1.588,2.968q0,.122.005.242a6.067,6.067,0,0,1,.351.737,6.147,6.147,0,0,1,.214.64h.489V79.047a.53.53,0,1,1,1.059,0Zm-3.507,0h.85q-.04-.118-.087-.236c-.562-1.418-1.612-2.247-2.219-2-.485.2-.716,1.116-.473,2.232h.787l-.042-.106a.531.531,0,1,1,.982-.4Zm7.146,0h.865a4.89,4.89,0,0,1,.68-1.674c.077-1.03-.208-1.774-.673-1.965-.74-.305-1.991.7-2.663,2.4a5.873,5.873,0,0,0-.344,1.244h.993l.437-1.1a.531.531,0,1,1,.982.4Zm3.738,0h.676c-.141-.991-.588-1.664-1.061-1.707-.515-.046-1.112.642-1.4,1.707h.721l.02-.227a.53.53,0,1,1,1.055.094Zm-14,1.079v1.619h15.882V81.745Z" transform="translate(-297 -74.999)"/></svg>