<svg xmlns="http://www.w3.org/2000/svg" width="16.999" height="16.99" viewBox="0 0 16.999 16.99"><defs><style>.a{fill:#f89e2f;}</style></defs><path class="a" d="M424.061,75.124a.589.589,0,0,0-.039.816c.419.426.516.632.52.739-.252.777-1.14,1.57-1.051,2.524a2.522,2.522,0,0,0,.736,1.418.545.545,0,0,0,.77.048.572.572,0,0,0,0-.787,1.53,1.53,0,0,1-.454-.8c.089-.837,1.071-1.554,1.057-2.439a2.266,2.266,0,0,0-.836-1.468.544.544,0,0,0-.708-.048Zm1.757.012a.591.591,0,0,0-.025.8c.419.426.516.632.52.739-.252.777-1.14,1.57-1.051,2.524A2.523,2.523,0,0,0,426,80.621a.545.545,0,0,0,.77.048.572.572,0,0,0,0-.787,1.53,1.53,0,0,1-.454-.8c.089-.837,1.071-1.554,1.057-2.439a2.267,2.267,0,0,0-.836-1.468.526.526,0,0,0-.722-.036Zm1.8-.024a.586.586,0,0,0-.055.828c.419.426.516.632.52.739-.252.777-1.14,1.57-1.051,2.524a2.524,2.524,0,0,0,.736,1.418.545.545,0,0,0,.77.048.572.572,0,0,0,0-.787,1.532,1.532,0,0,1-.454-.8c.089-.837,1.071-1.554,1.057-2.439a2.266,2.266,0,0,0-.836-1.468.547.547,0,0,0-.692-.06Zm6.06.783a.537.537,0,0,0-.111.107L429.6,80.977h-8.123a.557.557,0,0,0-.476.542,8.365,8.365,0,0,0,4.869,7.764l-.708.966a1.145,1.145,0,0,0-.2.728,1.015,1.015,0,0,0,.332.638,1.692,1.692,0,0,0,1.184.384h6.065a1.656,1.656,0,0,0,1.167-.389,1.02,1.02,0,0,0,.327-.638,1.137,1.137,0,0,0-.2-.723l-.714-1.09A8.427,8.427,0,0,0,438,81.519a.558.558,0,0,0-.531-.542H433.5l2.722-2.439a.538.538,0,0,0,.094-.113,1.858,1.858,0,0,0-.238-2.281,1.824,1.824,0,0,0-2.4-.249Zm1.638,1.005a.917.917,0,0,1,.122.892l-3.547,3.185h-.924l3.359-4.212A.8.8,0,0,1,435.316,76.9Zm-13.2,5.161h14.769a7.5,7.5,0,0,1-.122.9H422.224A8.222,8.222,0,0,1,422.113,82.061Zm.382,1.988h13.961a7.522,7.522,0,0,1-7.133,4.879A7.018,7.018,0,0,1,422.5,84.049Zm10.054,6.189c.276.387.525.672-.005.678h-6.065c-.639,0-.24-.326.011-.666a13.189,13.189,0,0,0,6.059-.011Z" transform="translate(-421.001 -75.009)"/></svg>