<svg xmlns="http://www.w3.org/2000/svg" width="11.999" height="17" viewBox="0 0 11.999 17"><defs><style>.a{fill:#f89e2f;}</style></defs><path class="a" d="M1207,87.429V82.573c0-.016,0-.033,0-.039v-.906a2.592,2.592,0,0,0-.942-1.967,4.614,4.614,0,0,0-1.15-.7v-.434h.1a.62.62,0,0,0,.6-.64V75.64a.623.623,0,0,0-.551-.641h-8.062a.619.619,0,0,0-.6.64v2.245a.62.62,0,0,0,.6.64h.1v.434a4.616,4.616,0,0,0-1.15.7,2.593,2.593,0,0,0-.941,1.967v.888a.468.468,0,0,0,0,.048v6.55A2.877,2.877,0,0,0,1197.862,92h6.275A2.877,2.877,0,0,0,1207,89.113V87.484C1207,87.461,1207,87.438,1207,87.429Zm-2.862,3.291h-6.275a1.6,1.6,0,0,1-1.67-1.606V88.069h9.615v1.044A1.6,1.6,0,0,1,1204.137,90.719Zm1.67-7.516v3.586h-9.615V83.2Zm-8.221-5.958v-.967h6.826v.967Zm-.9,3.413a4.379,4.379,0,0,1,1.214-.684.638.638,0,0,0,.381-.593v-.857h5.432v.86a.637.637,0,0,0,.383.59,4.384,4.384,0,0,1,1.212.683,1.208,1.208,0,0,1,.5.969v.3h-9.615v-.3A1.208,1.208,0,0,1,1196.688,80.658Z" transform="translate(-1195 -74.999)"/></svg>